<?xml version="1.0" encoding="utf-8" ?><svg xmlns="http://www.w3.org/2000/svg" xmlns:xlink="http://www.w3.org/1999/xlink" width="512" height="512"><defs><linearGradient id="gradient_0" gradientTransform="matrix(512 0 0 512 0 256)" gradientUnits="userSpaceOnUse" x1="0" y1="0" x2="1" y2="0"><stop offset="0" stop-color="#3A82F4"/><stop offset="0.5" stop-color="#6366EF"/><stop offset="1" stop-color="#A854F7"/></linearGradient></defs><rect fill="url(#gradient_0)" width="512" height="512" rx="112" ry="112"/><path fill="#FFF" transform="matrix(1 0 0 1 190 141)" d="M-9.0255 34.9234Q-15 49.3473 -15 66Q-15.181 72.2882 -10.6066 76.6066Q-6.2882 81.181 0 81Q6.2882 81.181 10.6066 76.6066Q15.181 72.2882 15 66Q15 55.3146 18.6909 46.4039Q22.3818 37.4932 29.9375 29.9376Q37.4932 22.3819 46.4039 18.6909Q55.3146 15 66 15Q76.6854 15 85.596 18.6909Q94.5067 22.3819 102.0624 29.9375Q109.6181 37.4933 113.3091 46.404Q117 55.3146 117 66Q116.819 72.2882 121.3934 76.6066Q125.7118 81.181 132 81Q138.2882 81.181 142.6066 76.6066Q147.181 72.2882 147 66Q147 49.3473 141.0255 34.9234Q135.0509 20.4996 123.2756 8.7244Q111.5004 -3.0509 97.0766 -9.0255Q82.6527 -15 66 -15Q49.3473 -15 34.9234 -9.0255Q20.4996 -3.0509 8.7243 8.7243Q-3.0509 20.4996 -9.0255 34.9234Z" fill-rule="evenodd"/><path fill="#FFF" transform="matrix(1 0 0 1 190 207)" d="M15 164L15 0Q15.181 -6.2882 10.6066 -10.6066Q6.2882 -15.181 0 -15Q-6.2882 -15.181 -10.6066 -10.6066Q-15.181 -6.2882 -15 0L-15 164Q-15.181 170.2882 -10.6066 174.6066Q-6.2882 179.181 0 179Q6.2882 179.181 10.6066 174.6066Q15.181 170.2882 15 164Z" fill-rule="evenodd"/><path fill="#FFF" transform="matrix(1 0 0 1 322 207)" d="M15 164L15 0Q15.181 -6.2882 10.6066 -10.6066Q6.2882 -15.181 0 -15Q-6.2882 -15.181 -10.6066 -10.6066Q-15.181 -6.2882 -15 0L-15 164Q-15.181 170.2882 -10.6066 174.6066Q-6.2882 179.181 0 179Q6.2882 179.181 10.6066 174.6066Q15.181 170.2882 15 164Z" fill-rule="evenodd"/><path fill="#FFF" transform="matrix(1 0 0 1 172 371)" d="M168 -15L0 -15Q-6.2882 -15.181 -10.6066 -10.6066Q-15.181 -6.2882 -15 0Q-15.181 6.2882 -10.6066 10.6066Q-6.2882 15.181 0 15L168 15Q174.2882 15.181 178.6066 10.6066Q183.181 6.2882 183 0Q183.181 -6.2882 178.6066 -10.6066Q174.2882 -15.181 168 -15Z" fill-rule="evenodd"/><path fill="#FFF" transform="matrix(1 0 0 1 232 203)" d="M24 0C28 22 26 29 48 36C26 43 28 50 24 72C20 50 18 43 0 36C18 29 20 22 24 0Z"/></svg>